# Blender v2.68 (sub 0) OBJ File: ''
# www.blender.org
mtllib sphere2.mtl
o sphere
v 0.216506 2.714517 -0.125000
v 0.250000 2.714517 -0.000000
v 0.000000 2.647530 -0.000000
v 0.125000 2.714517 -0.216506
v 0.000000 2.714517 -0.250000
v -0.125000 2.714517 -0.216506
v -0.216506 2.714517 -0.125000
v -0.250000 2.714517 -0.000000
v -0.216506 2.714517 0.125000
v -0.125000 2.714517 0.216506
v 0.000000 2.714517 0.250000
v 0.125000 2.714517 0.216506
v 0.216506 2.714517 0.125000
v 0.433013 2.897530 -0.000000
v 0.375000 2.897530 -0.216506
v 0.216506 2.897530 -0.375000
v 0.000000 2.897530 -0.433013
v -0.216506 2.897530 -0.375000
v -0.375000 2.897530 -0.216506
v -0.433013 2.897530 -0.000000
v -0.375000 2.897530 0.216506
v -0.216506 2.897530 0.375000
v 0.000000 2.897530 0.433013
v 0.216506 2.897530 0.375000
v 0.375000 2.897530 0.216506
v 0.500000 3.147530 0.000000
v 0.433013 3.147530 -0.250000
v 0.250000 3.147530 -0.433013
v 0.000000 3.147530 -0.500000
v -0.250000 3.147530 -0.433013
v -0.433013 3.147530 -0.250000
v -0.500000 3.147530 0.000000
v -0.433013 3.147530 0.250000
v -0.250000 3.147530 0.433013
v 0.000000 3.147530 0.500000
v 0.250000 3.147530 0.433013
v 0.433013 3.147530 0.250000
v 0.375000 3.397530 -0.216506
v 0.433013 3.397530 0.000000
v 0.216506 3.397530 -0.375000
v 0.000000 3.397530 -0.433013
v -0.216506 3.397530 -0.375000
v -0.375000 3.397530 -0.216506
v -0.433013 3.397530 0.000000
v -0.375000 3.397530 0.216506
v -0.216506 3.397530 0.375000
v 0.000000 3.397530 0.433013
v 0.216506 3.397530 0.375000
v 0.375000 3.397530 0.216506
v 0.250000 3.580543 0.000000
v 0.216506 3.580543 -0.125000
v 0.125000 3.580543 -0.216506
v 0.000000 3.580543 -0.250000
v -0.125000 3.580543 -0.216506
v -0.216506 3.580543 -0.125000
v -0.250000 3.580543 0.000000
v -0.216506 3.580543 0.125000
v -0.125000 3.580543 0.216506
v 0.000000 3.580543 0.250000
v 0.125000 3.580543 0.216506
v 0.216506 3.580543 0.125000
v 0.000000 3.647530 0.000000
vn 0.258198 -0.963612 -0.069185
vn 0.189014 -0.963612 -0.189014
vn 0.069185 -0.963612 -0.258198
vn -0.069185 -0.963612 -0.258198
vn -0.189014 -0.963612 -0.189014
vn -0.258198 -0.963612 -0.069185
vn -0.258198 -0.963612 0.069185
vn -0.189014 -0.963612 0.189014
vn -0.069185 -0.963612 0.258198
vn 0.069185 -0.963612 0.258198
vn 0.189014 -0.963612 0.189014
vn 0.258198 -0.963612 0.069185
vn 0.694746 -0.694746 -0.186159
vn 0.694746 -0.694747 -0.186158
vn 0.508590 -0.694746 -0.508590
vn 0.186158 -0.694747 -0.694746
vn 0.186159 -0.694746 -0.694746
vn -0.186159 -0.694746 -0.694746
vn -0.186158 -0.694747 -0.694746
vn -0.508590 -0.694746 -0.508590
vn -0.694746 -0.694746 -0.186159
vn -0.694746 -0.694747 -0.186158
vn -0.694746 -0.694746 0.186159
vn -0.694746 -0.694747 0.186158
vn -0.508590 -0.694746 0.508590
vn -0.186159 -0.694746 0.694746
vn -0.186158 -0.694747 0.694746
vn 0.186159 -0.694746 0.694746
vn 0.186158 -0.694747 0.694746
vn 0.508590 -0.694746 0.508590
vn 0.694746 -0.694747 0.186158
vn 0.694746 -0.694746 0.186159
vn 0.935113 -0.250562 -0.250564
vn 0.935113 -0.250564 -0.250562
vn 0.684550 -0.250564 -0.684550
vn 0.250562 -0.250564 -0.935113
vn 0.250564 -0.250562 -0.935113
vn -0.250564 -0.250562 -0.935113
vn -0.250562 -0.250564 -0.935113
vn -0.684550 -0.250564 -0.684550
vn -0.935113 -0.250562 -0.250564
vn -0.935113 -0.250564 -0.250562
vn -0.935113 -0.250562 0.250564
vn -0.935113 -0.250564 0.250562
vn -0.684550 -0.250565 0.684550
vn -0.250564 -0.250562 0.935113
vn -0.250562 -0.250564 0.935113
vn 0.250564 -0.250562 0.935113
vn 0.250562 -0.250564 0.935113
vn 0.684550 -0.250565 0.684550
vn 0.935113 -0.250564 0.250562
vn 0.935113 -0.250562 0.250564
vn 0.935113 0.250562 -0.250564
vn 0.935113 0.250564 -0.250562
vn 0.684550 0.250565 -0.684550
vn 0.250562 0.250564 -0.935113
vn 0.250564 0.250562 -0.935113
vn -0.250562 0.250564 -0.935113
vn -0.250564 0.250562 -0.935113
vn -0.684550 0.250565 -0.684550
vn -0.935113 0.250564 -0.250562
vn -0.935113 0.250562 -0.250564
vn -0.935113 0.250564 0.250562
vn -0.935113 0.250562 0.250564
vn -0.684550 0.250564 0.684550
vn -0.250562 0.250564 0.935113
vn -0.250564 0.250562 0.935113
vn 0.250564 0.250562 0.935113
vn 0.250562 0.250564 0.935113
vn 0.684550 0.250564 0.684550
vn 0.935113 0.250564 0.250562
vn 0.935113 0.250562 0.250564
vn 0.694746 0.694746 -0.186158
vn 0.694746 0.694747 -0.186159
vn 0.508590 0.694746 -0.508590
vn 0.186158 0.694747 -0.694746
vn -0.186158 0.694747 -0.694746
vn -0.508590 0.694746 -0.508590
vn -0.694746 0.694746 -0.186158
vn -0.694746 0.694747 -0.186159
vn -0.694746 0.694746 0.186158
vn -0.694746 0.694747 0.186159
vn -0.508590 0.694746 0.508590
vn -0.186158 0.694747 0.694746
vn -0.186159 0.694746 0.694746
vn 0.186159 0.694746 0.694746
vn 0.186158 0.694747 0.694746
vn 0.508590 0.694746 0.508590
vn 0.694746 0.694747 0.186159
vn 0.694746 0.694747 0.186158
vn 0.258198 0.963612 -0.069185
vn 0.189014 0.963612 -0.189014
vn 0.069185 0.963612 -0.258198
vn -0.069185 0.963612 -0.258198
vn -0.189014 0.963612 -0.189014
vn -0.258198 0.963612 -0.069185
vn -0.258198 0.963612 0.069185
vn -0.189014 0.963612 0.189014
vn -0.069185 0.963612 0.258198
vn 0.069185 0.963612 0.258198
vn 0.189014 0.963612 0.189014
vn 0.258198 0.963612 0.069185
usemtl Material.001
s off
f 1//1 2//1 3//1
f 4//2 1//2 3//2
f 5//3 4//3 3//3
f 6//4 5//4 3//4
f 7//5 6//5 3//5
f 8//6 7//6 3//6
f 9//7 8//7 3//7
f 10//8 9//8 3//8
f 11//9 10//9 3//9
f 12//10 11//10 3//10
f 13//11 12//11 3//11
f 2//12 13//12 3//12
f 1//13 14//13 2//13
f 14//14 1//14 15//14
f 15//15 1//15 4//15
f 16//15 15//15 4//15
f 17//16 16//16 4//16
f 5//17 17//17 4//17
f 17//18 5//18 6//18
f 18//19 17//19 6//19
f 18//20 6//20 7//20
f 19//20 18//20 7//20
f 20//21 7//21 8//21
f 20//22 19//22 7//22
f 20//23 8//23 9//23
f 21//24 20//24 9//24
f 21//25 9//25 10//25
f 22//25 21//25 10//25
f 23//26 10//26 11//26
f 23//27 22//27 10//27
f 12//28 23//28 11//28
f 24//29 23//29 12//29
f 13//30 24//30 12//30
f 25//30 24//30 13//30
f 14//31 25//31 13//31
f 2//32 14//32 13//32
f 15//33 26//33 14//33
f 27//34 26//34 15//34
f 28//35 27//35 15//35
f 16//35 28//35 15//35
f 29//36 28//36 16//36
f 17//37 29//37 16//37
f 29//38 17//38 18//38
f 30//39 29//39 18//39
f 31//40 18//40 19//40
f 31//40 30//40 18//40
f 32//41 19//41 20//41
f 32//42 31//42 19//42
f 32//43 20//43 21//43
f 33//44 32//44 21//44
f 34//45 21//45 22//45
f 34//45 33//45 21//45
f 35//46 22//46 23//46
f 35//47 34//47 22//47
f 24//48 35//48 23//48
f 36//49 35//49 24//49
f 37//50 36//50 24//50
f 25//50 37//50 24//50
f 26//51 37//51 25//51
f 14//52 26//52 25//52
f 38//53 39//53 26//53
f 27//54 38//54 26//54
f 28//55 38//55 27//55
f 40//55 38//55 28//55
f 29//56 40//56 28//56
f 41//57 40//57 29//57
f 42//58 29//58 30//58
f 42//59 41//59 29//59
f 43//60 30//60 31//60
f 43//60 42//60 30//60
f 43//61 31//61 32//61
f 44//62 43//62 32//62
f 45//63 32//63 33//63
f 45//64 44//64 32//64
f 45//65 33//65 34//65
f 46//65 45//65 34//65
f 46//66 34//66 35//66
f 47//67 46//67 35//67
f 48//68 47//68 35//68
f 36//69 48//69 35//69
f 49//70 48//70 36//70
f 37//70 49//70 36//70
f 26//71 49//71 37//71
f 39//72 49//72 26//72
f 38//73 50//73 39//73
f 51//74 50//74 38//74
f 40//75 51//75 38//75
f 52//75 51//75 40//75
f 53//76 52//76 40//76
f 41//76 53//76 40//76
f 53//77 41//77 42//77
f 54//77 53//77 42//77
f 55//78 42//78 43//78
f 55//78 54//78 42//78
f 56//79 43//79 44//79
f 56//80 55//80 43//80
f 56//81 44//81 45//81
f 57//82 56//82 45//82
f 58//83 45//83 46//83
f 58//83 57//83 45//83
f 58//84 46//84 47//84
f 59//85 58//85 47//85
f 60//86 59//86 47//86
f 48//87 60//87 47//87
f 49//88 60//88 48//88
f 61//88 60//88 49//88
f 50//89 61//89 49//89
f 39//90 50//90 49//90
f 51//91 62//91 50//91
f 52//92 62//92 51//92
f 53//93 62//93 52//93
f 62//94 53//94 54//94
f 62//95 54//95 55//95
f 62//96 55//96 56//96
f 62//97 56//97 57//97
f 62//98 57//98 58//98
f 62//99 58//99 59//99
f 60//100 62//100 59//100
f 61//101 62//101 60//101
f 50//102 62//102 61//102
